<svg xmlns="http://www.w3.org/2000/svg" data-name="Layer 1" viewBox="0 0 32 32" id="dentist"><path d="M21.5918,14.08887l-.0202-.00269a.46917.46917,0,0,0-.07159-.0144l-.015.00305A6.01911,6.01911,0,0,0,20.5,14H19V12.5c0-.01129-.00568-.02069-.00641-.0318A4.08485,4.08485,0,0,0,20.87109,9.478l.39844-3.59033a5.302,5.302,0,1,0-10.53906,0L11.12891,9.478a4.08485,4.08485,0,0,0,1.8775,2.99017C13.00568,12.47931,13,12.48871,13,12.5V14H11.5a5.96265,5.96265,0,0,0-.98773.07422L10.5,14.07178a.46331.46331,0,0,0-.05652.01141l-.01379.00177A7.51731,7.51731,0,0,0,4,21.5v7A3.50425,3.50425,0,0,0,7.5,32h17A3.50425,3.50425,0,0,0,28,28.5v-7A7.51045,7.51045,0,0,0,21.5918,14.08887ZM21.5,23A1.5,1.5,0,1,1,20,24.5,1.50164,1.50164,0,0,1,21.5,23ZM11.72461,5.77734a4.29176,4.29176,0,1,1,8.55286-.4303,10.198,10.198,0,0,1-1.88879-1.472.50024.50024,0,0,0-.6084-.0708A19.18368,19.18368,0,0,1,12.8916,5.93066c-.414.10944-.777.19342-1.12042.26648Zm.15729,1.4173c.38721-.08.79767-.17346,1.27045-.29865a20.03882,20.03882,0,0,0,4.81641-2.04053,10.63083,10.63083,0,0,0,2.23273,1.58789l-.17712,1.59583A18.05641,18.05641,0,0,1,16,8.5h-.00488a18.02712,18.02712,0,0,1-4.01947-.46075Zm.24115,2.173-.03131-.282A19.01091,19.01091,0,0,0,15.99512,9.5H16a19.03467,19.03467,0,0,0,3.90839-.41534l-.03143.283a3.08511,3.08511,0,0,1-1.53125,2.33154l-1.41113.80615a1.88785,1.88785,0,0,1-1.86914,0l-1.41113-.80615A3.08511,3.08511,0,0,1,12.123,9.36768ZM15.5,31h-8A2.50263,2.50263,0,0,1,5,28.5v-7a6.50227,6.50227,0,0,1,5-6.28857v4.87775a2.50379,2.50379,0,0,0-2,2.4494V26.5a.49971.49971,0,0,0,.5.5h1a.5.5,0,0,0,0-1H9V22.53857a1.5,1.5,0,0,1,3,0V26h-.5a.5.5,0,0,0,0,1h1a.49971.49971,0,0,0,.5-.5V22.53857a2.50379,2.50379,0,0,0-2-2.4494V15.01892c.15344-.01239.31879-.01892.5-.01892h1.51965a2.49306,2.49306,0,0,0,.56042,1.376l1.26758,1.52246A1.49064,1.49064,0,0,0,15.5,18.3432ZM16,17.438a.49509.49509,0,0,1-.38477-.17969l-1.26758-1.52246a1.49989,1.49989,0,0,1-.34766-.96v-1.7276l.56934.32526a2.89363,2.89363,0,0,0,2.86133,0L18,13.04828v1.7276a1.50218,1.50218,0,0,1-.34766.96045l-1.26758,1.52148A.49427.49427,0,0,1,16,17.438ZM27,28.5A2.50263,2.50263,0,0,1,24.5,31h-8V18.3432a1.49,1.49,0,0,0,.65234-.44525l1.26758-1.52148A2.49582,2.49582,0,0,0,18.98035,15H20.5c.17993,0,.34467.00635.5.019V22.0506a2.5,2.5,0,1,0,1,0V15.21045A6.49872,6.49872,0,0,1,27,21.5Z" fill="#28948d" class="color000000 svgShape"></path></svg>